<?xml version="1.0" encoding="UTF-8" standalone="no"?><!DOCTYPE svg PUBLIC "-//W3C//DTD SVG 1.1//EN" "http://www.w3.org/Graphics/SVG/1.1/DTD/svg11.dtd"><svg width="100%" height="100%" viewBox="0 0 161 168" version="1.1" xmlns="http://www.w3.org/2000/svg" xmlns:xlink="http://www.w3.org/1999/xlink" xml:space="preserve" style="fill-rule:evenodd;clip-rule:evenodd;stroke-linejoin:round;stroke-miterlimit:1.41421;"><rect id="Page-3" x="0" y="0" width="160.048" height="167.254" style="fill:none;"/><clipPath id="_clip1"><rect x="0" y="0" width="160.048" height="167.254"/></clipPath><g clip-path="url(#_clip1)"><g id="Layer-1"><path d="M60.863,32.31l28.54,-29.279c5.785,-5.935 15.865,-2.66 17.057,5.543l5.879,40.462c0.473,3.257 2.519,6.072 5.47,7.529l36.665,18.095c7.433,3.668 7.433,14.267 0,17.935l-36.665,18.095c-2.951,1.457 -4.997,4.272 -5.47,7.529l-5.879,40.463c-1.192,8.202 -11.272,11.477 -17.057,5.542l-28.54,-29.279c-2.297,-2.357 -5.607,-3.432 -8.851,-2.876l-40.299,6.912c-8.169,1.401 -14.399,-7.173 -10.542,-14.51l19.027,-36.19c1.531,-2.913 1.531,-6.394 0,-9.307l-19.027,-36.19c-3.857,-7.337 2.373,-15.911 10.542,-14.51l40.299,6.912c3.244,0.556 6.554,-0.519 8.851,-2.876" style="fill-rule:nonzero;"/></g></g></svg>