<?xml version="1.0" standalone="no"?>
<!DOCTYPE svg PUBLIC "-//W3C//DTD SVG 20010904//EN"
 "http://www.w3.org/TR/2001/REC-SVG-20010904/DTD/svg10.dtd">
<svg version="1.0" xmlns="http://www.w3.org/2000/svg"
 width="700.000000pt" height="700.000000pt" viewBox="0 0 700.000000 700.000000"
 preserveAspectRatio="xMidYMid meet">
<metadata>
Created by potrace 1.11, written by Peter Selinger 2001-2013
</metadata>
<g transform="translate(0.000000,700.000000) scale(0.100000,-0.100000)"
fill="#000000" stroke="none">
<path d="M4090 6986 c-80 -21 -140 -59 -218 -136 -68 -67 -489 -498 -808 -827
-410 -422 -426 -437 -514 -472 -94 -37 -147 -35 -470 20 -276 46 -316 53 -380
64 -23 5 -107 19 -175 30 -16 3 -55 9 -85 15 -48 9 -303 53 -470 81 -30 5 -66
11 -80 14 -14 3 -45 8 -68 11 -24 3 -87 13 -140 23 -131 23 -210 13 -304 -36
-182 -96 -271 -312 -204 -501 8 -23 65 -138 127 -255 61 -116 136 -258 165
-314 146 -278 237 -451 299 -568 23 -44 71 -134 105 -200 34 -66 79 -151 100
-190 53 -99 73 -166 71 -244 -1 -112 -11 -136 -163 -421 -25 -47 -71 -134
-103 -195 -32 -60 -77 -146 -100 -190 -23 -44 -71 -134 -105 -200 -35 -66 -82
-156 -105 -200 -315 -596 -304 -572 -310 -682 -11 -189 120 -370 303 -418 55
-15 145 -20 188 -11 12 2 39 7 60 11 64 10 95 15 184 31 47 9 94 18 105 19 11
2 63 10 115 19 52 9 109 18 125 21 29 5 77 13 120 21 11 1 61 10 110 19 50 8
101 17 115 19 41 8 273 47 295 51 11 2 47 8 80 14 33 6 74 13 90 15 17 3 86
15 155 27 210 37 284 33 390 -21 68 -35 70 -37 995 -988 317 -326 363 -369
422 -398 70 -33 82 -35 176 -39 169 -6 322 90 390 246 13 30 27 72 30 94 4 22
9 58 12 80 3 22 10 65 15 95 5 30 12 78 15 105 3 28 8 61 10 75 3 14 7 41 10
60 2 19 14 96 25 170 11 74 23 153 25 175 6 49 12 91 34 235 9 60 16 104 26
177 2 15 6 44 9 63 11 69 35 239 41 286 3 27 10 72 15 99 5 28 11 71 15 97 3
26 22 79 41 116 64 128 64 128 762 473 345 171 714 354 821 406 154 77 204
106 245 147 149 146 165 381 38 550 -51 67 -106 103 -322 208 -145 72 -667
329 -1280 631 -211 105 -293 208 -314 399 -3 26 -8 58 -11 70 -3 13 -7 43 -9
68 -3 25 -10 77 -16 115 -6 39 -13 84 -15 100 -2 17 -7 48 -10 70 -10 60 -20
134 -50 348 -8 52 -15 103 -19 122 -2 11 -7 43 -10 70 -4 28 -14 95 -22 150
-8 55 -17 115 -19 135 -3 19 -7 46 -10 60 -2 14 -7 49 -10 78 -3 29 -10 74
-15 100 -4 26 -12 74 -15 107 -29 244 -184 401 -405 410 -41 2 -95 -2 -120 -9z"/>
</g>
</svg>
